<?xml version="1.0" encoding="UTF-8"?>
<!DOCTYPE svg PUBLIC "-//W3C//DTD SVG 1.1//EN" "http://www.w3.org/Graphics/SVG/1.1/DTD/svg11.dtd">
<!-- Creator: CorelDRAW 2020 (64-Bit) -->
<svg xmlns="http://www.w3.org/2000/svg" xml:space="preserve" width="41.6667in" height="31.25in" version="1.1" style="shape-rendering:geometricPrecision; text-rendering:geometricPrecision; image-rendering:optimizeQuality; fill-rule:evenodd; clip-rule:evenodd"
viewBox="0 0 41666.66 31249.99"
 xmlns:xlink="http://www.w3.org/1999/xlink"
 xmlns:xodm="http://www.corel.com/coreldraw/odm/2003">
 <defs>
  <style type="text/css">
   <![CDATA[
    .fil0 {fill:#373F47}
   ]]>
  </style>
 </defs>
 <g id="Layer_x0020_1">
  <metadata id="CorelCorpID_0Corel-Layer"/>
  <g id="_1735728594560">
   <path class="fil0" d="M5723.97 5447.08l30208.3 0 0 20366.24 -30208.3 0 0 -20366.24zm1589.9 1071.91l27028.5 0 0 18222.43 -27028.5 0 0 -18222.43z"/>
   <polygon class="fil0" points="28623.81,18306.85 29279.52,18578.45 29935.22,18850.05 30206.83,19505.76 30478.43,20161.46 30206.83,20817.17 29935.22,21472.87 29279.52,21744.47 28623.81,22016.07 27968.11,21744.47 27312.4,21472.87 27040.8,20817.17 26769.2,20161.46 27040.8,19505.76 27312.4,18850.05 27968.11,18578.45 "/>
   <path class="fil0" d="M8614.72 7396.01l24426.8 0 0 16468.39 -24426.8 0 0 -16468.39zm3186.89 12527.07l5749.32 0 0 584.67 -5749.32 0 0 -584.67zm4349.1 -5316.06l9354.83 0 0 1169.35 -9354.83 0 0 -1169.35zm-5505.7 -4092.74l20366.24 0 0 1851.46 -20366.24 0 0 -1851.46zm18027.54 7058.86c1401.94,0 2538.43,1136.49 2538.43,2538.43 0,1401.94 -1136.49,2538.43 -2538.43,2538.43 -1401.94,0 -2538.43,-1136.49 -2538.43,-2538.43 0,-1401.94 1136.49,-2538.43 2538.43,-2538.43z"/>
  </g>
 </g>
</svg>
